<svg width="30" height="32" viewBox="0 0 30 32" fill="none" xmlns="http://www.w3.org/2000/svg">
<path d="M28.9358 19.0886C29.3836 17.2148 29.4579 15.2712 29.1546 13.3688C28.8512 11.4663 28.1761 9.64225 27.1678 8.0007C25.1314 4.68544 21.8615 2.31491 18.0773 1.4106M23.448 17.7771C24.0046 15.4484 23.6132 12.994 22.36 10.9538C21.1069 8.91367 19.0946 7.45488 16.7659 6.89838M1.6003 11.4191C1.13951 10.106 1.142 8.67481 1.60737 7.36338C2.07275 6.05194 2.97296 4.93929 4.15834 4.21039L5.19182 3.57558C5.65422 3.29498 6.20864 3.2081 6.7347 3.33381C7.26077 3.45953 7.71601 3.78769 8.00157 4.24704L10.6525 8.59329C10.9326 9.05162 11.0198 9.60227 10.895 10.1247C10.7701 10.6472 10.4434 11.0989 9.98628 11.3811C9.52693 11.6666 9.19877 12.1219 9.07305 12.6479C8.94734 13.174 9.03422 13.7284 9.31483 14.1908L13.5747 21.126C13.8603 21.5854 14.3155 21.9135 14.8416 22.0393C15.3676 22.165 15.9221 22.0781 16.3845 21.7975C16.8428 21.5173 17.3934 21.4301 17.9159 21.555C18.4384 21.6799 18.8901 22.0066 19.1722 22.4637L21.8766 26.6835C22.1572 27.1459 22.2441 27.7003 22.1184 28.2264C21.9926 28.7524 21.6645 29.2077 21.2051 29.4932L20.1717 30.128C18.995 30.8762 17.5973 31.1982 16.2119 31.0402C14.8265 30.8823 13.5372 30.254 12.559 29.2602C7.78973 24.0756 4.06844 18.0172 1.6003 11.4191Z" stroke="#7F7F7F" stroke-linecap="round" stroke-linejoin="round"/>
</svg>
