<svg width="33" height="33" viewBox="0 0 33 33" fill="none" xmlns="http://www.w3.org/2000/svg">
<path d="M9.8034 0.308594H23.4958C28.712 0.308594 32.9501 4.54672 32.9501 9.76287V23.4553C32.9501 25.9627 31.954 28.3674 30.181 30.1405C28.408 31.9135 26.0032 32.9096 23.4958 32.9096H9.8034C4.58725 32.9096 0.349121 28.6714 0.349121 23.4553V9.76287C0.349121 7.25544 1.34519 4.85071 3.11822 3.07769C4.89124 1.30467 7.29597 0.308594 9.8034 0.308594ZM9.47739 3.56869C7.92105 3.56869 6.42846 4.18694 5.32797 5.28744C4.22747 6.38793 3.60922 7.88053 3.60922 9.43686V23.7813C3.60922 27.0251 6.23359 29.6495 9.47739 29.6495H23.8218C25.3781 29.6495 26.8707 29.0312 27.9712 27.9307C29.0717 26.8302 29.69 25.3376 29.69 23.7813V9.43686C29.69 6.19307 27.0656 3.56869 23.8218 3.56869H9.47739ZM25.2074 6.01376C25.7477 6.01376 26.266 6.22843 26.6481 6.61055C27.0302 6.99267 27.2449 7.51093 27.2449 8.05132C27.2449 8.59172 27.0302 9.10998 26.6481 9.49209C26.266 9.87421 25.7477 10.0889 25.2074 10.0889C24.667 10.0889 24.1487 9.87421 23.7666 9.49209C23.3845 9.10998 23.1698 8.59172 23.1698 8.05132C23.1698 7.51093 23.3845 6.99267 23.7666 6.61055C24.1487 6.22843 24.667 6.01376 25.2074 6.01376ZM16.6496 8.45883C18.8112 8.45883 20.8842 9.31752 22.4127 10.846C23.9412 12.3745 24.7998 14.4475 24.7998 16.6091C24.7998 18.7707 23.9412 20.8437 22.4127 22.3722C20.8842 23.9006 18.8112 24.7593 16.6496 24.7593C14.488 24.7593 12.415 23.9006 10.8865 22.3722C9.35804 20.8437 8.49936 18.7707 8.49936 16.6091C8.49936 14.4475 9.35804 12.3745 10.8865 10.846C12.415 9.31752 14.488 8.45883 16.6496 8.45883ZM16.6496 11.7189C15.3527 11.7189 14.1088 12.2341 13.1917 13.1512C12.2747 14.0683 11.7595 15.3121 11.7595 16.6091C11.7595 17.906 12.2747 19.1498 13.1917 20.0669C14.1088 20.984 15.3527 21.4992 16.6496 21.4992C17.9465 21.4992 19.1904 20.984 20.1075 20.0669C21.0245 19.1498 21.5397 17.906 21.5397 16.6091C21.5397 15.3121 21.0245 14.0683 20.1075 13.1512C19.1904 12.2341 17.9465 11.7189 16.6496 11.7189Z" fill="#08569C"/>
</svg>
