<svg width="40" height="40" viewBox="0 0 40 40" fill="none" xmlns="http://www.w3.org/2000/svg">
<path d="M35.5425 1.14663H3.75746C3.03628 1.13929 2.34164 1.41834 1.82597 1.92256C1.31029 2.42677 1.0157 3.11496 1.00684 3.83613V35.7495C1.01731 36.4696 1.3126 37.1562 1.8281 37.6591C2.3436 38.162 3.03733 38.4402 3.75746 38.4329H35.5425C36.2637 38.4386 36.9579 38.1586 37.4733 37.6541C37.9887 37.1495 38.2834 36.4615 38.2931 35.7403V3.82696C38.2802 3.10791 37.9841 2.423 37.469 1.9211C36.9539 1.4192 36.2616 1.14087 35.5425 1.14663Z" fill="#0076B2"/>
<path d="M6.52653 15.1229H12.0614V32.9317H6.52653V15.1229ZM9.29549 6.25977C9.93031 6.25977 10.5509 6.44805 11.0787 6.8008C11.6065 7.15355 12.0178 7.65492 12.2606 8.24148C12.5034 8.82804 12.5667 9.47343 12.4427 10.096C12.3186 10.7186 12.0127 11.2904 11.5636 11.7391C11.1145 12.1877 10.5424 12.4931 9.91967 12.6166C9.29697 12.7401 8.65164 12.6761 8.06532 12.4327C7.47899 12.1894 6.97801 11.7776 6.62577 11.2495C6.27352 10.7213 6.08582 10.1006 6.08643 9.46577C6.08724 8.61521 6.42569 7.79975 7.02742 7.1986C7.62915 6.59744 8.44492 6.25977 9.29549 6.25977ZM15.5333 15.1229H20.8389V17.5679H20.9123C21.6519 16.1681 23.4551 14.692 26.1477 14.692C31.7528 14.6797 32.7919 18.3686 32.7919 23.1517V32.9317H27.2571V24.2672C27.2571 22.2042 27.2204 19.5483 24.3811 19.5483C21.5419 19.5483 21.059 21.7977 21.059 24.1327V32.9317H15.5333V15.1229Z" fill="white"/>
</svg>
