<svg width="33" height="27" viewBox="0 0 33 27" fill="none" xmlns="http://www.w3.org/2000/svg">
<path d="M3.41771 26.83C2.52121 26.83 1.75403 26.5111 1.11615 25.8732C0.478282 25.2353 0.158802 24.4676 0.157715 23.57V4.01C0.157715 3.1135 0.477195 2.34631 1.11615 1.70844C1.75511 1.07057 2.5223 0.751087 3.41771 0.75H29.4977C30.3942 0.75 31.1619 1.06948 31.8009 1.70844C32.4399 2.3474 32.7588 3.11459 32.7577 4.01V23.57C32.7577 24.4665 32.4388 25.2342 31.8009 25.8732C31.163 26.5121 30.3953 26.8311 29.4977 26.83H3.41771ZM16.4577 15.42L3.41771 7.27V23.57H29.4977V7.27L16.4577 15.42ZM16.4577 12.16L29.4977 4.01H3.41771L16.4577 12.16ZM3.41771 7.27V4.01V23.57V7.27Z" fill="#08569C"/>
</svg>
