<svg width="31" height="31" viewBox="0 0 31 31" fill="none" xmlns="http://www.w3.org/2000/svg">
<path d="M28.4169 30.2803C25.021 30.2803 21.6593 29.5468 18.3318 28.0798C15.0043 26.6127 11.9817 24.5208 9.26385 21.8041C6.54601 19.0873 4.45412 16.0717 2.98816 12.7573C1.52221 9.44287 0.788684 6.0741 0.787598 2.651V0.939453H10.4049L11.9127 9.13044L7.26704 13.8168C7.86472 14.8764 8.53032 15.8816 9.26385 16.8324C9.99737 17.7833 10.7852 18.6662 11.6274 19.4812C12.4153 20.2691 13.2781 21.0233 14.2159 21.7438C15.1538 22.4642 16.1655 23.1364 17.2511 23.7601L21.9782 19.033L30.1285 20.7038V30.2803H28.4169ZM5.71849 10.7197L8.40807 8.03016L7.7153 4.19955H4.08844C4.22428 5.42208 4.42804 6.57018 4.69971 7.64384C4.97139 8.7175 5.31098 9.7428 5.71849 10.7197ZM20.3074 25.3087C21.3941 25.7705 22.4879 26.1373 23.5887 26.409C24.6895 26.6806 25.7828 26.8572 26.8684 26.9387V23.3526L23.0378 22.5783L20.3074 25.3087Z" fill="#08569C"/>
</svg>
