<svg width="35" height="38" viewBox="0 0 35 38" fill="none" xmlns="http://www.w3.org/2000/svg">
<path d="M15.7759 14.67C13.4776 13.9848 11.0218 14.0412 8.75729 14.8312C6.49284 15.6212 4.53487 17.1046 3.16151 19.0707C1.78815 21.0369 1.06924 23.3858 1.10687 25.7838C1.14451 28.1818 1.9368 30.507 3.37118 32.4291C4.80557 34.3511 6.80913 35.7724 9.09727 36.4909C11.3854 37.2095 13.8418 37.1887 16.1175 36.4317C18.3932 35.6747 20.3725 34.2199 21.7742 32.2739C23.176 30.3279 23.9289 27.9896 23.9261 25.5913V14.181C26.0995 16.3544 29.3596 17.4411 33.7064 17.4411V9.29087C29.3596 9.29087 26.0995 6.57412 23.9261 1.14062H15.7759V25.5913M15.7759 25.5913C15.7759 24.9466 15.5847 24.3163 15.2265 23.7801C14.8682 23.244 14.3591 22.8262 13.7634 22.5794C13.1677 22.3327 12.5122 22.2681 11.8798 22.3939C11.2474 22.5197 10.6665 22.8302 10.2106 23.2861C9.75463 23.742 9.44413 24.3229 9.31834 24.9553C9.19255 25.5877 9.25711 26.2432 9.50386 26.8389C9.75061 27.4346 10.1685 27.9438 10.7046 28.302C11.2407 28.6602 11.871 28.8514 12.5158 28.8514C13.3804 28.8514 14.2096 28.508 14.821 27.8966C15.4324 27.2852 15.7759 26.456 15.7759 25.5913Z" stroke="#08569C" stroke-width="1.77823" stroke-linecap="round" stroke-linejoin="round"/>
</svg>
